<mxfile host="app.diagrams.net" modified="2023-01-28T09:17:32.389Z" agent="5.0 (Macintosh; Intel Mac OS X 10_15_7) AppleWebKit/537.36 (KHTML, like Gecko) Chrome/109.0.0.0 Safari/537.36 Edg/109.0.1518.52" version="20.8.5" etag="YL7BHkmXDO0c4uMpnF5_" type="github">
  <diagram id="gJlymvPTfnjVqmB4t_Ub" name="第 1 页">
    <mxGraphModel dx="954" dy="623" grid="1" gridSize="10" guides="1" tooltips="1" connect="1" arrows="1" fold="1" page="1" pageScale="1" pageWidth="827" pageHeight="1169" math="0" shadow="0">
      <root>
        <mxCell id="0" />
        <mxCell id="1" parent="0" />
        <mxCell id="5Dsp5fu7uO20sPGO3a_k-1" value="APP" style="rounded=0;whiteSpace=wrap;html=1;fillColor=#ffe6cc;strokeColor=#d79b00;" vertex="1" parent="1">
          <mxGeometry x="294" y="95" width="120" height="60" as="geometry" />
        </mxCell>
        <mxCell id="5Dsp5fu7uO20sPGO3a_k-3" value="" style="endArrow=none;html=1;rounded=0;" edge="1" parent="1">
          <mxGeometry width="50" height="50" relative="1" as="geometry">
            <mxPoint x="120" y="190" as="sourcePoint" />
            <mxPoint x="520" y="190" as="targetPoint" />
          </mxGeometry>
        </mxCell>
        <mxCell id="5Dsp5fu7uO20sPGO3a_k-4" value="socket" style="edgeLabel;html=1;align=center;verticalAlign=middle;resizable=0;points=[];" vertex="1" connectable="0" parent="5Dsp5fu7uO20sPGO3a_k-3">
          <mxGeometry x="-0.1226" y="2" relative="1" as="geometry">
            <mxPoint as="offset" />
          </mxGeometry>
        </mxCell>
        <mxCell id="5Dsp5fu7uO20sPGO3a_k-7" value="" style="endArrow=none;html=1;rounded=0;" edge="1" parent="1">
          <mxGeometry width="50" height="50" relative="1" as="geometry">
            <mxPoint x="120" y="460" as="sourcePoint" />
            <mxPoint x="520" y="460" as="targetPoint" />
          </mxGeometry>
        </mxCell>
        <mxCell id="5Dsp5fu7uO20sPGO3a_k-8" value="传输层" style="rounded=0;whiteSpace=wrap;html=1;fillColor=#dae8fc;strokeColor=#6c8ebf;" vertex="1" parent="1">
          <mxGeometry x="290" y="220" width="120" height="60" as="geometry" />
        </mxCell>
        <mxCell id="5Dsp5fu7uO20sPGO3a_k-10" value="网络层" style="rounded=0;whiteSpace=wrap;html=1;fillColor=#dae8fc;strokeColor=#6c8ebf;" vertex="1" parent="1">
          <mxGeometry x="290" y="290" width="120" height="60" as="geometry" />
        </mxCell>
        <mxCell id="5Dsp5fu7uO20sPGO3a_k-11" value="&lt;font style=&quot;font-size: 24px;&quot;&gt;用户进程&lt;/font&gt;" style="text;html=1;align=center;verticalAlign=middle;resizable=0;points=[];autosize=1;strokeColor=none;fillColor=none;" vertex="1" parent="1">
          <mxGeometry x="40" y="115" width="120" height="40" as="geometry" />
        </mxCell>
        <mxCell id="5Dsp5fu7uO20sPGO3a_k-12" value="&lt;font style=&quot;font-size: 24px;&quot;&gt;Linux 内核&lt;/font&gt;" style="text;html=1;align=center;verticalAlign=middle;resizable=0;points=[];autosize=1;strokeColor=none;fillColor=none;" vertex="1" parent="1">
          <mxGeometry x="30" y="330" width="140" height="40" as="geometry" />
        </mxCell>
        <mxCell id="5Dsp5fu7uO20sPGO3a_k-13" value="物理层" style="rounded=0;whiteSpace=wrap;html=1;fillColor=#fff2cc;strokeColor=#d6b656;" vertex="1" parent="1">
          <mxGeometry x="290" y="480" width="120" height="60" as="geometry" />
        </mxCell>
        <mxCell id="5Dsp5fu7uO20sPGO3a_k-14" value="链路层" style="rounded=0;whiteSpace=wrap;html=1;fillColor=#d5e8d4;strokeColor=#82b366;" vertex="1" parent="1">
          <mxGeometry x="290" y="380" width="120" height="60" as="geometry" />
        </mxCell>
        <mxCell id="5Dsp5fu7uO20sPGO3a_k-15" value="协议栈" style="text;html=1;align=center;verticalAlign=middle;resizable=0;points=[];autosize=1;strokeColor=none;fillColor=none;" vertex="1" parent="1">
          <mxGeometry x="195" y="260" width="60" height="30" as="geometry" />
        </mxCell>
        <mxCell id="5Dsp5fu7uO20sPGO3a_k-16" value="驱动" style="text;html=1;align=center;verticalAlign=middle;resizable=0;points=[];autosize=1;strokeColor=none;fillColor=none;" vertex="1" parent="1">
          <mxGeometry x="200" y="395" width="50" height="30" as="geometry" />
        </mxCell>
        <mxCell id="5Dsp5fu7uO20sPGO3a_k-17" value="" style="endArrow=none;html=1;rounded=0;" edge="1" parent="1">
          <mxGeometry width="50" height="50" relative="1" as="geometry">
            <mxPoint x="200" y="360" as="sourcePoint" />
            <mxPoint x="520" y="360" as="targetPoint" />
          </mxGeometry>
        </mxCell>
        <mxCell id="5Dsp5fu7uO20sPGO3a_k-18" value="HTTP、FTP" style="text;html=1;align=center;verticalAlign=middle;resizable=0;points=[];autosize=1;strokeColor=none;fillColor=none;" vertex="1" parent="1">
          <mxGeometry x="415" y="105" width="90" height="30" as="geometry" />
        </mxCell>
        <mxCell id="5Dsp5fu7uO20sPGO3a_k-19" value="TCP、UDP" style="text;html=1;align=center;verticalAlign=middle;resizable=0;points=[];autosize=1;strokeColor=none;fillColor=none;" vertex="1" parent="1">
          <mxGeometry x="415" y="235" width="80" height="30" as="geometry" />
        </mxCell>
        <mxCell id="5Dsp5fu7uO20sPGO3a_k-20" value="IP、ICMP、IGMP" style="text;html=1;align=center;verticalAlign=middle;resizable=0;points=[];autosize=1;strokeColor=none;fillColor=none;" vertex="1" parent="1">
          <mxGeometry x="410" y="305" width="120" height="30" as="geometry" />
        </mxCell>
      </root>
    </mxGraphModel>
  </diagram>
</mxfile>
